<?xml version="1.0" encoding="UTF-8" standalone="no"?>
<!-- Created with Inkscape (http://www.inkscape.org/) -->

<svg
   version="1.1"
   id="svg1"
   width="1269.994"
   height="363.02072"
   viewBox="0 0 1269.994 363.02072"
   xmlns="http://www.w3.org/2000/svg"
   xmlns:svg="http://www.w3.org/2000/svg">
  <defs
     id="defs1" />
  <g
     id="g1"
     transform="translate(-102.31362,-317.53847)">
    <path
       style="fill:#000000"
       d="m 1183.2797,656.29882 c 10.302,-25.4079 22.8269,-55.92917 25.2661,-61.56961 1.4024,-3.24294 1.1233,-4.11472 -13.927,-43.5 -8.4469,-22.10491 -19.2318,-51.44074 -23.9665,-65.19074 -7.8152,-22.69601 -11.589,-32.45485 -9.8611,-25.5 4.0712,16.38617 4.7097,21.78518 4.1981,35.5 -0.2871,7.7 -1.2046,17.15701 -2.0388,21.01557 -7.3798,34.13599 -30.1065,63.7144 -61.2282,79.68724 -19.8129,10.16872 -33.6833,13.33313 -57.9146,13.2127 -14.9227,-0.0742 -18.1699,-0.3977 -26.5738,-2.64769 -21.88126,-5.85835 -34.54766,-13.28903 -51.50046,-30.21263 -15.5408,-15.51405 -23.5622,-29.12173 -29.7012,-50.38624 l -2.3587,-8.16978 -1.7128,7.25041 c -3.9026,16.51931 -15.917,38.19443 -27.6212,49.83145 -28.4679,28.30443 -67.4211,39.83938 -109.4776,32.41886 -34.511,-6.08917 -66.2393,-29.00156 -81.0801,-58.55143 -10.1736,-20.25671 -13.3714,-37.98077 -13.4486,-74.53794 -0.026,-12.0849 -0.026,-12.08995 -2.6649,-13.29205 -4.84,-2.20524 -17.3621,-2.54139 -25.6859,-0.68952 -11.208,2.49355 -16.1597,6.2401 -21.1747,16.02123 l -4,7.80146 -0.2867,60.87418 -0.2867,60.87418 h -41.9633 -41.9633 v -111.5 -111.5 h 39.5 c 33.1943,0 39.5,0.22354 39.5,1.40029 0,1.12616 1.7129,0.93542 8.75,-0.97428 14.3045,-3.88195 33.8469,-4.69719 46,-1.91897 l 3.25,0.74296 v -32.625 -32.625 h 43.5 43.5 v 33.97525 33.97525 l 2.4561,-0.93382 c 5.5581,-2.1132 20.8004,-4.01049 32.2431,-4.01349 26.5219,-0.007 49.5036,7.36945 69.5405,22.32026 22.5298,16.81094 37.3846,39.46753 42.1645,64.30937 1.172,6.09115 1.4009,6.52816 2.0258,3.86718 5.3046,-22.58823 14.6163,-40.2436 29.3694,-55.68545 17.5213,-18.33938 39.06906,-29.46339 66.49826,-34.32966 13.9886,-2.48175 33.6686,-1.65595 46.7023,1.95971 10.8603,3.01274 28.801,11.31188 38.1397,17.64299 16.6197,11.26719 34.1662,32.24035 41.042,49.05713 1.7568,4.29694 3.3466,7.66029 3.5328,7.4741 0.3554,-0.35542 -17.9156,-50.37906 -26.2537,-71.87909 -0.6464,-1.66683 1.7252,-1.74645 44.6783,-1.5 l 45.3609,0.26027 1.8291,5.5 c 1.006,3.025 6.5455,20.35 12.31,38.5 13.0742,41.16516 16.4487,50.82847 17.393,49.80687 0.4102,-0.44378 6.8973,-18.35687 14.4158,-39.80687 7.5185,-21.45 14.8945,-42.375 16.3912,-46.5 l 2.7212,-7.5 41.7199,-0.26097 c 26.1006,-0.16327 41.7198,0.0976 41.7198,0.69675 0,1.06642 -4.2827,13.25604 -21.4545,61.06422 -6.4203,17.875 -15.5203,43.975 -20.2222,58 -7.0458,21.01688 -24.6513,66.20056 -64.6806,166 l -4.2115,10.5 -44.1479,0.26035 -44.148,0.26036 z m 69.0468,-0.0104 c 1.7566,-4.5375 4.9007,-12.98093 6.9869,-18.76318 4.8906,-13.55545 13.9159,-36.37139 28.4756,-71.98682 6.4079,-15.675 13.9405,-34.11332 16.7391,-40.97405 2.7985,-6.86072 8.6583,-22.83572 13.0219,-35.5 14.7646,-42.85118 29.7577,-86.75684 29.7577,-87.14238 0,-0.21094 -10.5108,-0.38352 -23.3573,-0.38352 h -23.3573 l -1.9979,5.75 c -19.263,55.43753 -23.7657,68.53159 -25.0166,72.75 -0.8155,2.75 -4.9997,14.225 -9.2983,25.5 -4.2985,11.275 -8.1246,21.7375 -8.5024,23.25 -0.3779,1.5125 -1.0231,2.75 -1.4338,2.75 -0.4107,0 -3.0351,-6.8625 -5.8319,-15.25 -2.7968,-8.3875 -7.7953,-23.35 -11.1077,-33.25 -7.5584,-22.58992 -21.4087,-65.89428 -23.8278,-74.5 l -1.8272,-6.5 -26.7209,-0.26633 c -14.6965,-0.14649 -26.7209,-0.036 -26.7209,0.24548 0,0.28151 2.4207,7.37636 5.3794,15.76634 19.3378,54.83638 25.854,72.25797 47.5969,127.25451 8.6977,22 16.1175,41.0154 16.4883,42.25645 0.7534,2.52123 -0.4651,6.07773 -8.991,26.24355 -3.1392,7.425 -7.1881,17.1 -8.9976,21.5 -1.8095,4.4 -5.1318,12.46192 -7.383,17.91538 -2.2511,5.45345 -4.093,10.29095 -4.093,10.75 0,0.45904 11.4356,0.83462 25.4125,0.83462 h 25.4124 z M 843.54984,590.6859 c 11.8375,-3.15211 18.3414,-6.12216 29.2579,-13.3608 21.1069,-13.99591 34.7242,-31.86683 41.3653,-54.28663 2.7732,-9.3622 4.4046,-30.98366 3.1088,-41.20356 -4.4587,-35.16726 -26.2682,-64.44452 -57.0875,-76.63482 -9.2558,-3.66107 -16.3032,-5.36351 -27.6756,-6.68562 -8.7915,-1.02207 -11.1774,-0.91286 -22.7659,1.04206 -14.7793,2.49321 -24.5785,6.03065 -34.519,12.46107 l -6.9261,4.48053 V 375.5183 334.53847 h -25.8147 -25.8147 l 0.2288,26.25 c 0.8203,94.08112 1.6062,140.21398 2.5,146.75 3.764,27.52439 19.1679,53.32727 40.4006,67.67432 12.0522,8.14382 26.1956,14.04116 39,16.2618 3.3,0.57231 7.125,1.23716 8.5,1.47743 6.4159,1.12116 28.7707,-0.27662 36.2421,-2.26612 z m -40.9915,-46.64312 c -8.1475,-2.27069 -12.7703,-5.04816 -19.6193,-11.78763 -16.2256,-15.96612 -20.2069,-41.6331 -9.4075,-60.64901 4.9882,-8.78351 14.3185,-17.47069 23.4437,-21.8278 l 7.8325,-3.73987 h 14 c 13.8973,0 14.0513,0.025 21,3.41242 12.5443,6.1152 23.4195,19.81386 27.089,34.12185 5.7895,22.57413 -8.1949,50.80448 -29.2454,59.03743 -7.5005,2.93348 -26.8704,3.72422 -35.093,1.43261 z m 30.5599,-18.48403 c 24.8391,-13.23911 24.6028,-48.83008 -0.4059,-61.14185 -5.6532,-2.78306 -7.5259,-3.20082 -14.2081,-3.16952 -19.9843,0.0936 -32.9253,12.58368 -33.9749,32.79109 -0.3388,6.52296 -0.01,9.08577 1.8022,13.88083 5.2232,13.85045 17.8635,22.0171 33.0015,21.32165 6.2144,-0.2855 8.6159,-0.92696 13.7852,-3.6822 z m 229.68946,66.50676 c 17.1071,-2.78451 31.9517,-9.41426 45.8241,-20.46552 22.9062,-18.24787 34.1043,-38.99447 36.7367,-68.06152 1.2626,-13.94178 0.5202,-22.91398 -2.772,-33.5 -6.0869,-19.57236 -12.4133,-31.21495 -23.2658,-42.81628 -17.4278,-18.6303 -39.1838,-28.46439 -67.023,-30.29551 -24.3915,-1.60435 -57.09296,11.46825 -75.55276,30.20267 -14.5562,14.77274 -23.2112,33.09807 -26.3748,55.84345 -3.7811,27.18487 4.2068,52.44057 24.6243,77.85632 7.7111,9.59885 17.2069,17.09225 28.80326,22.72957 10.9264,5.31164 17.5095,7.65345 25.075,8.92003 8.0663,1.35042 24.305,1.15263 33.925,-0.41321 z m -31.2394,-47.50094 c -8.656,-2.0553 -18.6447,-10.54453 -26.42,-22.45397 -12.86776,-19.70958 -9.78526,-45.2231 7.6071,-62.96523 10.752,-10.96814 22.038,-15.17411 38.7551,-14.44296 12.9117,0.56471 20.2674,4.08324 30.8153,14.74023 14.4028,14.55163 18.8087,29.48019 14.1444,47.92508 -2.7042,10.69383 -7.2737,18.12236 -16.5929,26.97463 -9.8729,9.3783 -15.4025,11.24145 -32.9249,11.09376 -6.6796,-0.0563 -13.6025,-0.44849 -15.3841,-0.87154 z m 29.7941,-18.20771 c 6.6162,-3.04613 13.2279,-9.48762 16.7027,-16.27275 3.7077,-7.23991 4.2657,-18.84725 1.2858,-26.74727 -5.7171,-15.15635 -21.8958,-24.53419 -37.4816,-21.72583 -17.8246,3.21177 -28.5581,17.49764 -27.3453,36.39554 0.8431,13.13718 9.6391,25.03814 21.8538,29.5679 7.3757,2.73529 17.4671,2.2435 24.9846,-1.21759 z m -432.05466,10.89171 c 0,-43.12393 0.2614,-53.29378 1.4916,-58.0168 3.7091,-14.2402 12.2195,-24.36787 25.7577,-30.65251 9.8261,-4.56146 16.2667,-6.04079 26.2999,-6.04079 h 7.4508 v -22 -22 l -4.75,-0.17198 c -21.0905,-0.76359 -41.4329,5.14221 -56.1935,16.31412 l -5.0565,3.82715 v -8.48464 -8.48465 h -22.6048 -22.6047 l 0.3616,92.75 c 0.1989,51.0125 0.7226,93.3125 1.1637,94 0.6051,0.94286 6.6849,1.25 24.7432,1.25 h 23.941 z m -201.5,73.6036 c -11.274,-0.98674 -24.3706,-4.62821 -35,-9.73167 -13.065,-6.27284 -20.4012,-11.64154 -32.966,-24.12483 -14.329,-14.23618 -22.4761,-27.8247 -27.8676,-46.48058 l -2.4497,-8.47662 -1.1375,4.5 c -5.2221,20.65808 -12.1337,32.93604 -27.4922,48.83761 -8.9607,9.27749 -17.938,15.94537 -29.2191,21.7023 -45.876,23.41135 -99.9051,15.47279 -135.843,-19.95958 -22.0678,-21.75746 -33.4994,-49.6207 -33.519,-81.69934 -0.011,-17.62774 5.4403,-39.3409 13.9971,-55.75417 11.5199,-22.09679 33.9253,-43.68119 53.4606,-51.50172 24.6232,-9.85734 52.2802,-11.68376 78.0263,-5.15272 23.3067,5.91222 44.2108,21.14254 61.7597,44.99677 9.9478,13.52207 18.7504,34.37906 18.7504,44.42742 0,4.92723 0.8651,3.39656 3.0723,-5.4358 3.0274,-12.11485 8.2152,-23.69871 15.5719,-34.77066 28.5763,-43.00786 84.1229,-62.64302 133.3558,-47.13994 23.5885,7.42788 43.3849,21.4489 57.7429,40.89718 9.2042,12.46736 16.8646,31.1198 19.1858,46.71569 0.6509,4.37333 1.3004,32.88562 1.6079,70.58696 l 0.516,63.25 h -40.0263 c -36.1957,0 -40.0263,-0.15472 -40.0263,-1.61663 0,-1.09207 -0.5679,-1.43002 -1.75,-1.04153 -19.7457,6.48903 -33.4016,8.40273 -49.75,6.97186 z m 22.948,-17.78249 c 11.6912,-1.16997 29.9549,-8.80615 39.802,-16.64155 l 3.75,-2.98391 v 8.04713 8.04712 h 22.5 22.5 l 0.1122,-48.75 c 0.1396,-60.67782 0.1794,-59.10832 -1.7428,-68.72816 -5.4678,-27.36325 -24.6073,-53.05541 -48.4798,-65.07742 -36.857,-18.5609 -81.6498,-11.70206 -112.9817,17.30015 -17.1432,15.86864 -27.949,38.48418 -30.9906,64.86081 -1.6648,14.43678 0.4746,27.72424 7.0792,43.96811 4.4685,10.99023 9.3979,18.42869 19.1379,28.8794 12.5812,13.49917 27.93,23.63391 43.326,28.60785 6.117,1.97619 23.0743,3.99087 28.0396,3.33135 1.1,-0.14611 4.6766,-0.5335 7.948,-0.86088 z m -17.868,-47.73811 c -19.4583,-2.50998 -36.6335,-20.92207 -39.8033,-42.66968 -2.4749,-16.98046 2.5023,-31.41331 15.2178,-44.12887 11.3453,-11.34525 20.4815,-15.20508 35.9907,-15.20508 13.3232,0 20.2376,3.15114 31.1612,14.20131 9.2356,9.3425 14.5678,19.37837 16.157,30.40926 3.3874,23.51323 -17.5333,54.32841 -38.7352,57.05514 -7.7107,0.99164 -14.0848,1.09941 -19.9882,0.33792 z m 22.215,-18.67074 c 10.0982,-5.19356 16.465,-14.28177 19.1562,-27.34416 0.9826,-4.76944 0.9122,-6.76268 -0.4232,-11.97535 -6.0723,-23.70244 -29.6253,-33.57442 -49.5692,-20.77643 -12.6286,8.10373 -18.3622,26.77769 -12.7993,41.68607 2.7929,7.48485 11.4186,16.1931 19.0162,19.19835 7.0767,2.79919 18.3453,2.4383 24.6193,-0.78848 z m -213.4824,63.9576 c 32.1265,-8.42155 56.7525,-30.29657 68.1273,-60.51664 l 2.4704,-6.56332 h -26.0079 -26.008 l -5.6972,6.16499 c -11.9515,12.93271 -20.6946,16.29391 -40.5875,15.60344 -15.4261,-0.53542 -19.7475,-2.01309 -27.7437,-9.48673 -10.9163,-10.20281 -18.2157,-23.76584 -19.5233,-36.27624 -1.3591,-13.00378 6.2089,-32.55715 16.6375,-42.98575 3.1525,-3.15244 8.3841,-7.03401 11.6258,-8.62571 5.6825,-2.79017 6.4142,-2.8936 20.394,-2.88272 14.2951,0.0111 14.5847,0.0555 20.5,3.14468 7.0983,3.70702 14.0071,9.58235 17.9382,15.255 l 2.8338,4.08904 h 25.864 c 20.984,0 25.864,-0.25348 25.864,-1.34345 0,-2.62368 -4.0707,-13.11899 -7.5274,-19.40767 -10.8066,-19.66025 -28.9959,-36.38517 -47.3318,-43.52135 -33.4463,-13.01701 -70.7015,-6.91494 -98.9933,16.21426 -7.3211,5.98517 -19.4518,21.32349 -23.9063,30.2277 -7.5398,15.07133 -10.3578,25.48157 -10.9785,40.55737 -0.6387,15.51135 0.6164,24.93809 4.9578,37.23819 5.6183,15.91796 12.8906,27.17794 24.888,38.53495 13.6457,12.91739 31.0219,22.33458 46.8915,25.41331 3.025,0.58685 6.4,1.27383 7.5,1.52662 5.1447,1.18228 30.2855,-0.38681 37.8126,-2.35997 z m -10.7572,-64.10681 c 6.2675,-3.03404 12.6682,-9.61589 15.5481,-15.98803 l 2.253,-4.98512 h 39.3217 39.3218 v -10 -10 l -39.75,-0.004 -39.75,-0.004 -3.3736,-6.52413 c -5.2728,-10.19701 -12.6656,-15.60651 -24.0753,-17.61628 -14.595,-2.57086 -29.2833,6.04009 -34.5528,20.25641 -3.0743,8.29429 -2.7269,19.65872 0.8375,27.3914 4.2862,9.29882 12.2776,16.5375 21.6642,19.6236 4.8276,1.58725 17.2885,0.39921 22.5554,-2.15045 z"
       id="path1" />
    <path
       style="fill:#ffaf00;fill-opacity:1;stroke:#000000;stroke-width:1.13505"
       d="M 101.7291,274.83945 C 77.234212,271.41788 52.090501,256.39414 36.404768,235.8072 31.130806,228.88532 23.782149,213.94437 20.703364,203.88384 c -2.246295,-7.34021 -2.343501,-8.41153 -2.317238,-25.53868 0.02388,-15.57417 0.261235,-18.72191 1.842537,-24.43531 5.791202,-20.92419 20.353022,-42.71495 36.546109,-54.688718 17.571019,-12.992664 37.210294,-19.479529 59.000608,-19.487939 30.34839,-0.01171 55.82544,12.999874 74.73871,38.170407 7.20166,9.58425 16.18671,28.96366 14.30276,30.84892 -0.35659,0.35684 -11.82172,0.75153 -25.47808,0.87711 l -24.82972,0.22831 -3.60263,-5.11369 c -3.70172,-5.25435 -10.97968,-11.23444 -18.5309,-15.22633 -4.13338,-2.18508 -4.68767,-2.25014 -19.17192,-2.25014 H 98.28814 l -5.891192,2.90023 c -9.086475,4.47326 -16.314811,12.21294 -21.65787,23.19001 -5.453192,11.20332 -7.212251,18.51695 -6.624109,27.54101 0.796516,12.22119 6.447271,23.93234 16.812945,34.8447 9.64733,10.15613 15.871047,12.39504 34.421816,12.38285 10.09973,-0.007 17.93036,-1.4417 23.57203,-4.31986 1.93221,-0.98574 7.22365,-5.3928 11.75874,-9.79345 l 8.24562,-8.0012 h 25.20779 25.20779 l -1.16269,3.29542 c -4.5643,12.93661 -12.12053,25.27149 -21.49929,35.09575 -11.90298,12.46837 -24.59725,20.61954 -40.03747,25.70863 -12.46741,4.10925 -33.49457,6.32258 -44.91315,4.72758 z"
       id="path2"
       transform="translate(102.31362,317.53847)" />
    <path
       style="fill:#ffaf00;fill-opacity:1;stroke:#000000;stroke-width:1.13505"
       d="m 321.23378,274.53598 c -19.20862,-3.38383 -40.68391,-17.05713 -56.53068,-35.99303 -14.45627,-17.27434 -23.33829,-42.99145 -21.67277,-62.75166 3.23728,-38.40812 22.58891,-68.50346 54.56805,-84.863377 27.04877,-13.837628 56.66058,-15.026866 83.71712,-3.362158 24.98201,10.770335 44.91433,34.574465 52.64935,62.876385 l 2.27481,8.32336 0.27548,56.39793 0.27547,56.39793 h -22.14224 -22.14225 l -0.24364,-8.13405 -0.24365,-8.13407 -4.68209,3.55668 c -6.27449,4.76631 -21.81945,12.18986 -30.22078,14.43205 -8.90607,2.37689 -26.09751,2.9777 -35.88218,1.25401 z M 346.8848,228.1625 c 11.0709,-1.16435 17.82805,-4.68413 26.31794,-13.70894 10.35928,-11.01198 16.68786,-25.61449 16.68786,-38.50542 0,-12.81556 -5.0516,-24.10896 -15.84454,-35.42214 -3.82994,-4.01455 -9.07239,-8.56803 -11.64991,-10.11883 -10.8981,-6.55702 -29.04768,-6.81871 -42.12693,-0.60741 -5.28319,2.50898 -7.99407,4.59177 -14.21968,10.92512 -11.84892,12.05394 -16.05799,21.59009 -16.04127,36.34334 0.0108,9.49879 1.60231,16.32244 5.70916,24.47755 7.31611,14.52784 20.20999,24.43803 34.54085,26.54796 6.6045,0.97238 7.98064,0.97808 16.62652,0.0688 z"
       id="path3"
       transform="translate(102.31362,317.53847)" />
    <path
       style="fill:#ffaf00;fill-opacity:1;stroke:#000000;stroke-width:1.13505"
       d="m 480.90209,270.96478 -2.20473,-0.34149 -0.56197,-25.63396 c -0.30908,-14.09868 -0.56196,-56.02646 -0.56196,-93.17282 V 84.277663 h 22.10374 22.10375 l 0.2426,8.559517 0.24261,8.55951 4.68209,-3.557255 c 6.26795,-4.762129 20.14339,-11.347158 28.46406,-13.508517 8.20538,-2.131413 24.664,-3.901995 28.8943,-3.108385 l 3.0832,0.578411 v 21.115696 21.1157 l -8.60164,0.5637 c -11.41779,0.74825 -14.92612,1.66156 -25.08164,6.52938 -12.70825,6.09142 -19.66166,13.53599 -24.46351,26.19151 -1.80763,4.76409 -1.84648,5.86374 -2.10343,59.54908 l -0.26179,54.69535 -21.88548,-0.12755 c -12.03702,-0.0702 -22.87761,-0.28122 -24.0902,-0.46903 z"
       id="path4"
       transform="translate(102.31362,317.53847)" />
    <path
       style="fill:#ffaf00;fill-opacity:1;stroke:#000000;stroke-width:1.13505"
       d="m 706.14466,274.82365 c -44.11226,-4.20845 -78.34553,-35.22808 -87.68402,-79.4527 -1.33427,-6.31875 -2.38398,-48.42292 -3.37989,-135.567861 l -0.48886,-42.777298 h 25.55826 25.55826 V 58.41124 99.796689 l 2.34105,-1.545701 c 12.17697,-8.039978 20.00266,-11.439094 33.30094,-14.464377 16.3047,-3.70923 28.46633,-3.574963 44.45312,0.490769 31.81638,8.091485 56.64323,33.09565 65.95962,66.43067 4.4123,15.78765 3.60858,42.92152 -1.73688,58.63781 -6.9586,20.45914 -20.60134,37.20934 -41.4459,50.88621 -11.26882,7.39387 -21.06287,11.43395 -32.64056,13.46432 -5.97343,1.04757 -23.62895,1.71554 -29.79514,1.12726 z m 21.70789,-47.57332 c 8.78489,-1.40093 15.55687,-5.04426 22.50486,-12.10762 12.81661,-13.02943 18.75364,-33.19947 14.53717,-49.38756 -2.97134,-11.40777 -11.04949,-23.30391 -20.31384,-29.9148 -8.98584,-6.41217 -11.36045,-7.09364 -27.08283,-7.77216 l -13.90711,-0.60018 -6.50866,3.08884 c -16.40694,7.78634 -27.38625,20.54497 -31.05088,36.08306 -1.89907,8.05209 -1.20141,19.98929 1.64695,28.17975 5.58056,16.04689 19.78944,29.63862 33.87658,32.40518 5.33565,1.04785 19.7988,1.06187 26.29776,0.0255 z"
       id="path5"
       transform="translate(102.31362,317.53847)" />
    <path
       style="fill:#ffaf00;fill-opacity:1;stroke:#000000;stroke-width:1.13505"
       d="m 931.28741,274.9394 c -17.9387,-1.61821 -41.88169,-13.90968 -54.69804,-28.08002 -13.99892,-15.47783 -24.961,-37.0091 -27.82379,-54.65037 -4.06224,-25.03254 4.00697,-55.36892 20.06665,-75.44104 17.27061,-21.585601 49.1797,-36.746754 77.33946,-36.746754 31.46306,0 60.95911,15.065873 78.51341,40.102794 6.9443,9.90436 13.2903,24.40219 16.4497,37.58067 4.2514,17.73346 0.7091,46.12533 -7.8858,63.20495 -8.2402,16.37464 -24.8299,33.08495 -42.56602,42.87552 -15.87909,8.76545 -38.59221,13.03089 -59.39557,11.15425 z M 966.561,225.3371 c 6.58092,-3.04645 19.43572,-15.85825 23.26356,-23.18573 4.63488,-8.87236 6.45007,-17.24053 5.98844,-27.60709 -0.623,-13.99023 -4.62901,-22.12087 -16.79214,-34.08151 -11.20824,-11.02165 -19.77055,-14.17789 -36.42461,-13.42686 -10.51226,0.47407 -16.68087,2.31693 -23.98195,7.16457 -21.7247,14.42439 -30.0935,43.48277 -18.90584,65.64541 6.56904,13.01318 19.14938,25.02154 28.69879,27.39396 1.83103,0.45489 10.03305,0.73673 18.22671,0.62629 14.22547,-0.19173 15.12447,-0.30582 19.92704,-2.52904 z"
       id="path6"
       transform="translate(102.31362,317.53847)" />
    <path
       style="fill:#ffaf00;fill-opacity:1;stroke:#000000;stroke-width:1.13505"
       d="m 1097.6056,345.9379 c -1.1698,-0.47876 -1.2919,-0.15752 14.8412,-39.04802 6.6038,-15.91912 12.4426,-30.66771 12.9752,-32.77465 0.965,-3.81725 0.9167,-3.9618 -13.6388,-40.8619 -18.2848,-46.35439 -28.2104,-72.41898 -38.7392,-101.7291 -15.8135,-44.021816 -16.5313,-46.237058 -15.1531,-46.76591 1.6726,-0.641853 18.5764,-0.604176 36.6579,0.08171 l 14.6881,0.55716 0.9252,3.483862 c 3.7812,14.237708 37.9467,118.431568 40.3719,123.121368 0.7731,1.49499 1.6946,2.38685 2.0478,1.98189 0.9499,-1.08924 17.1944,-45.39125 23.4244,-63.88321 5.2872,-15.69365 21.0641,-61.391148 22.211,-64.333679 0.5326,-1.36652 2.4392,-1.489757 23.0487,-1.489757 19.1141,0 22.4681,0.18524 22.4681,1.240893 0,1.243307 -25.7224,76.862053 -34.0372,100.062563 -2.4331,6.78903 -12.6741,32.64695 -22.7578,57.46204 -19.9875,49.18755 -20.7442,51.10498 -31.747,80.44686 -4.126,11.00292 -7.7685,20.6757 -8.0945,21.49506 -0.5457,1.37177 -2.4902,1.48444 -24.5505,1.42255 -13.1768,-0.037 -24.4005,-0.24835 -24.9414,-0.46973 z"
       id="path7"
       transform="translate(102.31362,317.53847)" />
  </g>
</svg>
